<svg xmlns="http://www.w3.org/2000/svg" width="53.791" height="80.381" viewBox="0 0 53.791 80.381">
  <g id="Group_761" data-name="Group 761" transform="translate(-1570.992 -8420.252)" opacity="0.3">
    <g id="Group_571" data-name="Group 571" transform="translate(1570.992 8420.252)">
      <path id="Path_451" data-name="Path 451" d="M10.01-109.541c.046,0,.09,0,.135.007-.422-5.657-3.182-5.4-6.628-5.712-.03,1.342-2.019,2.425-4.469,2.425s-4.44-1.083-4.47-2.425c-3.447.315-6.206.056-6.627,5.712.045,0,.09-.007.135-.007Z" transform="translate(13.928 132.59)" fill="#818181"/>
      <path id="Path_452" data-name="Path 452" d="M-8.173-135.107l.552.239-.046.372a.449.449,0,0,0-.373.442.447.447,0,0,0,.311.426l-.336,4.7a2.154,2.154,0,0,0,.088.7l.273.816c.062.188.163.188.225,0l.273-.816a2.154,2.154,0,0,0,.088-.7l-.336-4.7a.449.449,0,0,0,.311-.427.449.449,0,0,0-.374-.442l-.043-.346,1.276.553.625.27v2.292a6.117,6.117,0,0,0-.463,2.341c0,3.391,2.749,8.49,6.14,8.49s6.14-5.1,6.14-8.49a6.123,6.123,0,0,0-.464-2.344v-2.289l.624-.27,1.888-.817c.493-.214.493-.564,0-.777L.912-139.04a2.6,2.6,0,0,0-1.8,0l-7.292,3.156C-8.667-135.67-8.667-135.321-8.173-135.107Z" transform="translate(12.96 139.2)" fill="#818181"/>
      <path id="Path_453" data-name="Path 453" d="M9.27-85.944H-10.607a.414.414,0,0,0-.414.414.415.415,0,0,0,.414.414H9.27a.414.414,0,0,0,.414-.414A.415.415,0,0,0,9.27-85.944Z" transform="translate(13.644 124.502)" fill="#818181"/>
      <path id="Path_454" data-name="Path 454" d="M9.43-106.6c-.046,0-.09-.007-.136-.007H-12.631c-.045,0-.091,0-.135.007a2.014,2.014,0,0,0-1.878,2.007v.047l.008.046,1.82,10.555A2.016,2.016,0,0,0-10.8-91.98H7.467A2.016,2.016,0,0,0,9.48-93.942L11.3-104.5l.008-.046v-.046A2.016,2.016,0,0,0,9.43-106.6Zm-11.1,7.99a.868.868,0,0,1-.867-.867.867.867,0,0,1,.867-.866.867.867,0,0,1,.867.866A.867.867,0,0,1-1.668-98.607Z" transform="translate(14.644 130.204)" fill="#818181"/>
    </g>
    <g id="Group_572" data-name="Group 572" transform="translate(1598.83 8420.252)">
      <path id="Path_455" data-name="Path 455" d="M48.46-109.541c.045,0,.09,0,.135.007-.422-5.657-3.182-5.4-6.628-5.712-.03,1.342-2.019,2.425-4.47,2.425s-4.44-1.083-4.469-2.425c-3.448.315-6.206.056-6.628,5.712.046,0,.09-.007.136-.007Z" transform="translate(-24.521 132.59)" fill="#818181"/>
      <path id="Path_456" data-name="Path 456" d="M30.276-135.107l.553.239-.047.372a.449.449,0,0,0-.373.442.447.447,0,0,0,.311.426l-.335,4.7a2.154,2.154,0,0,0,.088.7l.272.816c.062.188.164.188.225,0l.274-.816a2.174,2.174,0,0,0,.088-.7l-.336-4.7a.449.449,0,0,0,.31-.427.449.449,0,0,0-.374-.442l-.043-.346,1.275.553.626.27v2.292a6.117,6.117,0,0,0-.464,2.341c0,3.391,2.75,8.49,6.14,8.49s6.14-5.1,6.14-8.49a6.109,6.109,0,0,0-.465-2.344v-2.289l.625-.27,1.888-.817c.494-.214.494-.564,0-.777l-7.291-3.156a2.6,2.6,0,0,0-1.8,0l-7.291,3.156C29.783-135.67,29.783-135.321,30.276-135.107Z" transform="translate(-25.489 139.2)" fill="#818181"/>
      <path id="Path_457" data-name="Path 457" d="M47.72-85.944H27.842a.415.415,0,0,0-.414.414.415.415,0,0,0,.414.414H47.72a.414.414,0,0,0,.414-.414A.415.415,0,0,0,47.72-85.944Z" transform="translate(-24.805 124.502)" fill="#818181"/>
      <path id="Path_458" data-name="Path 458" d="M47.879-106.6c-.046,0-.09-.007-.135-.007H25.819c-.046,0-.09,0-.135.007a2.014,2.014,0,0,0-1.879,2.007v.047l.009.046,1.819,10.555a2.017,2.017,0,0,0,2.013,1.963h18.27a2.017,2.017,0,0,0,2.013-1.963L49.749-104.5l.009-.046v-.046A2.016,2.016,0,0,0,47.879-106.6Zm-11.1,7.99a.868.868,0,0,1-.867-.867.867.867,0,0,1,.867-.866.867.867,0,0,1,.867.866A.867.867,0,0,1,36.782-98.607Z" transform="translate(-23.805 130.204)" fill="#818181"/>
    </g>
    <g id="Group_573" data-name="Group 573" transform="translate(1570.992 8461.247)">
      <path id="Path_459" data-name="Path 459" d="M10.01-52.92c.046,0,.09,0,.135.007-.422-5.657-3.182-5.4-6.628-5.713C3.487-57.284,1.5-56.2-.952-56.2s-4.44-1.083-4.47-2.425c-3.447.315-6.206.056-6.627,5.713.045,0,.09-.007.135-.007Z" transform="translate(13.928 75.968)" fill="#818181"/>
      <path id="Path_460" data-name="Path 460" d="M-8.173-78.485l.552.239-.046.371a.449.449,0,0,0-.373.442.448.448,0,0,0,.311.427l-.336,4.7a2.152,2.152,0,0,0,.088.7l.273.817c.062.187.163.187.225,0l.273-.817a2.152,2.152,0,0,0,.088-.7l-.336-4.7a.449.449,0,0,0,.311-.426.45.45,0,0,0-.374-.442l-.043-.345,1.276.552.625.271v2.291a6.117,6.117,0,0,0-.463,2.341c0,3.391,2.749,8.49,6.14,8.49s6.14-5.1,6.14-8.49a6.125,6.125,0,0,0-.464-2.344V-77.4l.624-.271L8.2-78.486c.493-.214.493-.564,0-.777L.912-82.419a2.6,2.6,0,0,0-1.8,0l-7.292,3.156C-8.667-79.049-8.667-78.7-8.173-78.485Z" transform="translate(12.96 82.578)" fill="#818181"/>
      <path id="Path_461" data-name="Path 461" d="M9.27-29.323H-10.607a.414.414,0,0,0-.414.414.415.415,0,0,0,.414.414H9.27a.414.414,0,0,0,.414-.414A.415.415,0,0,0,9.27-29.323Z" transform="translate(13.644 67.881)" fill="#818181"/>
      <path id="Path_462" data-name="Path 462" d="M9.43-49.976c-.046,0-.09-.007-.136-.007H-12.631c-.045,0-.091,0-.135.007a2.015,2.015,0,0,0-1.878,2.007v.047l.008.046,1.82,10.554A2.016,2.016,0,0,0-10.8-35.359H7.467A2.016,2.016,0,0,0,9.48-37.321L11.3-47.875l.008-.047v-.046A2.016,2.016,0,0,0,9.43-49.976Zm-11.1,7.99a.867.867,0,0,1-.867-.867.867.867,0,0,1,.867-.866.866.866,0,0,1,.867.866A.866.866,0,0,1-1.668-41.986Z" transform="translate(14.644 73.583)" fill="#818181"/>
    </g>
    <g id="Group_574" data-name="Group 574" transform="translate(1598.83 8461.247)">
      <path id="Path_463" data-name="Path 463" d="M48.46-52.92c.045,0,.09,0,.135.007-.422-5.657-3.182-5.4-6.628-5.713-.03,1.342-2.019,2.425-4.47,2.425s-4.44-1.083-4.469-2.425c-3.448.315-6.206.056-6.628,5.713.046,0,.09-.007.136-.007Z" transform="translate(-24.521 75.968)" fill="#818181"/>
      <path id="Path_464" data-name="Path 464" d="M30.276-78.485l.553.239-.047.371a.449.449,0,0,0-.373.442.448.448,0,0,0,.311.427l-.335,4.7a2.152,2.152,0,0,0,.088.7l.272.817c.062.187.164.187.225,0l.274-.817a2.172,2.172,0,0,0,.088-.7l-.336-4.7a.449.449,0,0,0,.31-.426.449.449,0,0,0-.374-.442l-.043-.345,1.275.552.626.271v2.291a6.117,6.117,0,0,0-.464,2.341c0,3.391,2.75,8.49,6.14,8.49s6.14-5.1,6.14-8.49a6.112,6.112,0,0,0-.465-2.344V-77.4l.625-.271,1.888-.817c.494-.214.494-.564,0-.777l-7.291-3.156a2.6,2.6,0,0,0-1.8,0l-7.291,3.156C29.783-79.049,29.783-78.7,30.276-78.485Z" transform="translate(-25.489 82.578)" fill="#818181"/>
      <path id="Path_465" data-name="Path 465" d="M47.72-29.323H27.842a.415.415,0,0,0-.414.414.415.415,0,0,0,.414.414H47.72a.414.414,0,0,0,.414-.414A.415.415,0,0,0,47.72-29.323Z" transform="translate(-24.805 67.881)" fill="#818181"/>
      <path id="Path_466" data-name="Path 466" d="M47.879-49.976c-.046,0-.09-.007-.135-.007H25.819c-.046,0-.09,0-.135.007a2.015,2.015,0,0,0-1.879,2.007v.047l.009.046,1.819,10.554a2.017,2.017,0,0,0,2.013,1.963h18.27a2.017,2.017,0,0,0,2.013-1.963l1.819-10.554.009-.047v-.046A2.016,2.016,0,0,0,47.879-49.976Zm-11.1,7.99a.867.867,0,0,1-.867-.867.867.867,0,0,1,.867-.866.867.867,0,0,1,.867.866A.866.866,0,0,1,36.782-41.986Z" transform="translate(-23.805 73.583)" fill="#818181"/>
    </g>
  </g>
</svg>
