<svg xmlns="http://www.w3.org/2000/svg" width="77.578" height="77.947" viewBox="0 0 77.578 77.947">
  <path id="Path_1384" data-name="Path 1384" d="M51.038,61.515a9.29,9.29,0,0,0,9.322-8.82v-.127L69.4,42.41a5.469,5.469,0,0,1,7.515-.732,5.325,5.325,0,0,1,.709,7.5c-.029.035-.058.07-.088.1l-18.054,20.7a12.665,12.665,0,0,1-9.552,4.338H22.795l-4.713,4.713L1.27,62.637,13.314,50.7A18.365,18.365,0,0,1,32.331,46.39l2.643.931H51.253a5.126,5.126,0,0,1,5.129,5.124c0,.054,0,.107,0,.162a5.27,5.27,0,0,1-5.341,4.927H41.271a1.99,1.99,0,1,0,0,3.98ZM41.183,23.433a28.454,28.454,0,0,0,4.1,1.91c.6.239,1.21.486,1.807.748a8.373,8.373,0,0,1,1.982,1.194,2.293,2.293,0,0,1-.549,4.06,6.5,6.5,0,0,1-3.423.446,15.933,15.933,0,0,1-5.493-1.64,2.6,2.6,0,0,0-1.186-.382c-.955,0-1.25.963-1.417,1.481-.31,1-.589,2-.86,3-.446,1.64-.167,2.253,1.369,3a18.965,18.965,0,0,0,5.317,1.528,4.341,4.341,0,0,1,.86.183,3.973,3.973,0,0,1,.072.931v1.966a1.783,1.783,0,0,0,1.666,1.893,1.753,1.753,0,0,0,.2,0h2.945a1.714,1.714,0,0,0,1.8-1.863V39.178c0-.6.143-.8.8-.979a10.346,10.346,0,0,0,5.373-3.447,9.5,9.5,0,0,0,2.022-7.833,10.157,10.157,0,0,0-5.134-6.949,43.423,43.423,0,0,0-4.617-2.1l-.6-.247a10.693,10.693,0,0,1-2.579-1.481,1.943,1.943,0,0,1-.8-1.743,2,2,0,0,1,1.282-1.512,4.174,4.174,0,0,1,1.5-.295A12.283,12.283,0,0,1,53.72,13.8c1.958.947,2.388-.478,2.547-1.083.263-.8.494-1.592.724-2.428l.271-.955A1.783,1.783,0,0,0,56.2,7.046l-.057-.02a16.765,16.765,0,0,0-4.227-1.234c-1.313-.207-1.313-.207-1.313-1.528,0-2.778-.215-3.184-2.929-3.184H46.214c-1.592.048-2.022.517-2.062,2.078V4.821c0,1.17,0,1.17-1.162,1.592-4.235,1.536-6.512,4.434-6.766,8.605C35.993,18.529,37.625,21.3,41.183,23.433Z" transform="translate(-1.27 -1.08)" fill="#818181" opacity="0.3"/>
</svg>
