<svg width="46" height="89" viewBox="0 0 46 89" fill="none" xmlns="http://www.w3.org/2000/svg">
<path d="M45.2363 44L1.23633 0V4V25L19.2363 44L1.23633 64V84V89L45.2363 44Z" fill="#23C0E8"/>
<path d="M1.49968 64.499C1.20311 64.499 0.913224 64.411 0.66664 64.2462C0.420056 64.0815 0.227849 63.8473 0.114302 63.5733C0.000755832 63.2994 -0.0290361 62.9979 0.0287006 62.707C0.0864374 62.4161 0.229101 62.1489 0.438674 61.939L18.3777 43.999L0.435683 26.06C0.162446 25.7771 0.0112449 25.3982 0.0146626 25.0049C0.0180802 24.6116 0.17582 24.2354 0.453933 23.9573C0.732045 23.6792 1.10828 23.5214 1.50157 23.518C1.89487 23.5146 2.27378 23.6658 2.55669 23.939L21.5567 42.939C21.8379 43.2203 21.9959 43.6018 21.9959 43.9995C21.9959 44.3973 21.8379 44.7787 21.5567 45.06L2.55669 64.06C2.27622 64.3403 1.89619 64.4981 1.49968 64.499V64.499Z" fill="#818181"/>
</svg>
